<svg xmlns="http://www.w3.org/2000/svg" viewBox="0 0 172.69 161.83">
  <title>bg-face</title>
  <g id="Layer_2" data-name="Layer 2">
    <g id="Layer_4" data-name="Layer 4">
      <path d="M57.87,81.34a11.75,11.75,0,0,1-14.27-.07c-3.89-2.81-6.56-7.66-6.26-12.42.41-6.29,6.52-9.74,12.2-11.09C55.73,56.29,63.46,57.28,66,64a12.15,12.15,0,0,1-.42,9.21,16.79,16.79,0,0,1-8.72,8.1c-1.76.79-.24,3.38,1.51,2.59,7.16-3.21,12.49-10.38,11.11-18.47-1.35-7.91-9-11.95-16.53-11.29-7.33.65-16,4.17-18.16,12C33.2,72,35.85,78.32,40.17,82.31c5.39,5,13.13,6,19.21,1.62,1.56-1.11.06-3.72-1.51-2.59Z" style="fill: #68ba00"/>
      <path d="M48.14,61.46A23.18,23.18,0,0,0,46.72,74a25.18,25.18,0,0,0,4.79,12.43c.83,1.06,2.59.15,2.56-1.06-.08-4.37.62-8.71.54-13.09-.08-4-.63-8.59-4.12-11.11-1.19-.87-2.92.85-2.05,2,3.89,5.38,3.8,11.74,3.4,18.09l2.8-.75C51,74.94,49,67.33,50,60.63l-1.84,1c2.84,1.08,3.6,4.78,3.88,7.44a59.82,59.82,0,0,1-.13,10.28l2.25-1.29C49,74.37,49.09,67.33,50.8,61.82l-2.5.66c4.52,4.1,4.06,10.28,3.56,15.83L54.12,77c-2.87-1.4-4.11-5.52-4.5-8.44s-.14-7,3.13-7.95L50.9,59.58c2,5.38,1.24,11.23,1,16.82L53.76,75c-2.28-.9-3.15-3.78-3.6-6a25.23,25.23,0,0,1-.2-8.27l-1.45,1.1a27.35,27.35,0,0,1,3.84,0L50.9,60.67a33.62,33.62,0,0,1,2,13.79l2.56-1.06a14.34,14.34,0,0,1-3.65-8.07c-.34-2.43-.23-5.63,2.31-6.82L52.05,58a23.23,23.23,0,0,1,2.44,10.1,24.16,24.16,0,0,1-1.4,10.08c-.71,1.8,2.19,2.58,2.9.8A26.7,26.7,0,0,0,57.47,67.7a26.4,26.4,0,0,0-2.83-11.24,1.53,1.53,0,0,0-2-.54c-3.46,1.62-4.2,5.8-3.81,9.24.43,3.71,1.84,7.69,4.55,10.36a1.52,1.52,0,0,0,2.56-1.06,35.7,35.7,0,0,0-2.1-14.58,1.54,1.54,0,0,0-1.44-1.1,27.33,27.33,0,0,0-3.84,0,1.52,1.52,0,0,0-1.45,1.1c-.79,5.87-.68,15.31,5.91,17.92,1,.38,1.85-.57,1.89-1.45.29-5.86,1-12-1.07-17.62A1.53,1.53,0,0,0,52,57.73c-4.63,1.37-5.83,6.45-5.34,10.74.45,4,2.11,9.24,6,11.14a1.52,1.52,0,0,0,2.25-1.3c.57-6.38.7-13.29-4.44-18a1.53,1.53,0,0,0-2.51.66c-2.16,7-1.55,15.1,4.75,19.67,1,.72,2.19-.27,2.26-1.3a52.94,52.94,0,0,0-.08-11.87c-.56-3.71-2.16-7.33-5.87-8.74a1.51,1.51,0,0,0-1.85,1,33.27,33.27,0,0,0,4.93,22.28,1.51,1.51,0,0,0,2.79-.76c.43-6.84.38-13.82-3.81-19.61L49,63.8c2.77,2,2.66,6.79,2.63,9.8,0,3.94-.61,7.87-.54,11.81l2.57-1.06a21.77,21.77,0,0,1-4-10.66c-.44-3.49-.43-7.46,1.06-10.72.8-1.74-1.79-3.27-2.59-1.51Z" style="fill: #68ba00"/>
      <path d="M129.87,81.34a11.75,11.75,0,0,1-14.27-.07c-3.89-2.81-6.56-7.66-6.26-12.42.41-6.29,6.52-9.74,12.2-11.09,6.19-1.47,13.92-.48,16.45,6.27a12.15,12.15,0,0,1-.42,9.21,16.79,16.79,0,0,1-8.72,8.1c-1.76.79-.24,3.38,1.51,2.59,7.16-3.21,12.49-10.38,11.11-18.47-1.35-7.91-9-11.95-16.53-11.29-7.33.65-16,4.17-18.16,12-1.58,5.84,1.07,12.19,5.39,16.18,5.39,5,13.13,6,19.21,1.62,1.56-1.11.06-3.72-1.51-2.59Z" style="fill: #68ba00"/>
      <path d="M120.14,61.46A23.18,23.18,0,0,0,118.72,74a25.18,25.18,0,0,0,4.79,12.43c.83,1.06,2.59.15,2.56-1.06-.08-4.37.62-8.71.54-13.09-.08-4-.63-8.59-4.12-11.11-1.19-.87-2.92.85-2,2,3.89,5.38,3.8,11.74,3.4,18.09l2.8-.75C123,74.94,121,67.33,122,60.63l-1.84,1c2.84,1.08,3.6,4.78,3.88,7.44a59.82,59.82,0,0,1-.13,10.28l2.25-1.29c-5.15-3.73-5.08-10.77-3.37-16.28l-2.5.66c4.52,4.1,4.06,10.28,3.56,15.83L126.12,77c-2.87-1.4-4.11-5.52-4.5-8.44s-.14-7,3.13-7.95l-1.85-1.05c2,5.38,1.24,11.23,1,16.82l1.9-1.45c-2.28-.9-3.15-3.78-3.6-6a25.23,25.23,0,0,1-.2-8.27l-1.45,1.1a27.35,27.35,0,0,1,3.84,0l-1.45-1.11a33.62,33.62,0,0,1,2,13.79l2.56-1.06a14.34,14.34,0,0,1-3.65-8.07c-.34-2.43-.23-5.63,2.31-6.82L124.05,58a23.23,23.23,0,0,1,2.44,10.1,24.16,24.16,0,0,1-1.4,10.08c-.71,1.8,2.19,2.58,2.9.8a26.7,26.7,0,0,0,1.48-11.25,26.4,26.4,0,0,0-2.83-11.24,1.53,1.53,0,0,0-2-.54c-3.46,1.62-4.2,5.8-3.81,9.24.43,3.71,1.84,7.69,4.55,10.36a1.52,1.52,0,0,0,2.56-1.06,35.7,35.7,0,0,0-2.1-14.58,1.54,1.54,0,0,0-1.44-1.1,27.33,27.33,0,0,0-3.84,0,1.52,1.52,0,0,0-1.45,1.1c-.79,5.87-.68,15.31,5.91,17.92,1,.38,1.85-.57,1.89-1.45.29-5.86,1-12-1.07-17.62A1.53,1.53,0,0,0,124,57.73c-4.63,1.37-5.83,6.45-5.34,10.74.45,4,2.11,9.24,6,11.14a1.52,1.52,0,0,0,2.25-1.3c.57-6.38.7-13.29-4.44-18a1.53,1.53,0,0,0-2.51.66c-2.16,7-1.55,15.1,4.75,19.67,1,.72,2.19-.27,2.26-1.3a52.94,52.94,0,0,0-.08-11.87c-.56-3.71-2.16-7.33-5.87-8.74a1.51,1.51,0,0,0-1.85,1,33.27,33.27,0,0,0,4.93,22.28,1.51,1.51,0,0,0,2.79-.76c.43-6.84.38-13.82-3.81-19.61l-2,2.06c2.77,2,2.66,6.79,2.63,9.8,0,3.94-.61,7.87-.54,11.81l2.57-1.06a21.77,21.77,0,0,1-4-10.66c-.44-3.49-.43-7.46,1.06-10.72.8-1.74-1.79-3.27-2.59-1.51Z" style="fill: #68ba00"/>
      <path d="M89.69,96.54A31.12,31.12,0,0,1,88.37,91c-.51-2.9-.88-5.82-1.14-8.76-.53-5.94-1-12.45.58-18.28a8.53,8.53,0,0,1,1.28-3c.08-.11.6-.64.64-.67a1.62,1.62,0,0,1,1-.39l-1.69-.69c2.74,6.22,3.47,13.24,3.77,20,.31,6.94,0,13.87,0,20.81a1.5,1.5,0,0,0,3,0c0-7.21.3-14.42-.07-21.62-.36-7-1.28-14.18-4.14-20.68A1.54,1.54,0,0,0,90,57c-5.22.87-5.78,8.89-6,12.91A95.05,95.05,0,0,0,85.21,90.2a36.06,36.06,0,0,0,1.59,7.13c.67,1.79,3.57,1,2.89-.79Z" style="fill: #68ba00"/>
      <path d="M90.88,26.07a41.55,41.55,0,0,1-5.78,14c-2.62,4.13-6.17,8.32-10.83,10.17l1.84,1c-1.1-4.09-1.3-8.39-2.69-12.42a1.52,1.52,0,0,0-2.51-.66c-3.27,3.07-6.15,6.67-10.08,8.94l2.26,1.3c-.36-3-1.13-6.3-3.51-8.39a8.91,8.91,0,0,0-7-1.93A25.59,25.59,0,0,0,44,41a22.24,22.24,0,0,0-7.82,6.14c-4,5.29-4.47,12.54-4.68,18.94A91.34,91.34,0,0,0,35.2,93.38c2.79,10.06,6.72,19.74,10.69,29.37l1.85-1.84c-2.89-.75-4.48-3-6-5.45s-3.1-4.88-5.7-6.25a1.52,1.52,0,0,0-2.26,1.29,31.34,31.34,0,0,0,.56,11.09l2.21-1.7c-5.92-3.69-8.91-10.14-10.42-16.72S24.42,89.5,24.38,82.64a1.5,1.5,0,0,0-3,0c.07,11.06.26,23.76,6.79,33.23A23.28,23.28,0,0,0,35,122.48a1.52,1.52,0,0,0,2.21-1.69,29,29,0,0,1-.46-10.29l-2.26,1.3c2.57,1.35,3.86,4,5.4,6.38,1.74,2.62,3.87,4.81,7,5.62,1,.26,2.3-.74,1.84-1.85-6.4-15.52-13-31.58-14.17-48.52a77.37,77.37,0,0,1,.14-11.89,33.11,33.11,0,0,1,1.63-8.6c2-5.58,7.15-8.9,12.52-10.86,2.23-.81,5-1.6,7.32-.67,2.72,1.09,3.56,4.39,3.87,7a1.53,1.53,0,0,0,2.26,1.3c4.16-2.41,7.22-6.17,10.68-9.42l-2.5-.66c1.38,4,1.58,8.32,2.69,12.42a1.5,1.5,0,0,0,1.84,1c5.23-2.07,9.2-6.32,12.24-10.93a44,44,0,0,0,6.47-15.31c.38-1.89-2.51-2.7-2.89-.8Z" style="fill: #68ba00"/>
      <path d="M91.9,26.87c1.1,5.53,5.48,10.49,9.35,14.33,4.17,4.13,9.29,8.32,15.06,9.87a1.52,1.52,0,0,0,1.9-1.45c.16-3.87.12-7.74,0-11.61l-2.56,1.06a85.65,85.65,0,0,0,11.7,9.52c3.7,2.69,7.56,5.51,10.22,9.3,3.18,4.52,4,10,4.11,15.41A73.69,73.69,0,0,1,139.62,91c-1.45,6.71-3.11,13.37-3.81,20.22a1.52,1.52,0,0,0,1.9,1.45c5.76-1.58,7.95-7.17,11.08-11.63l-2.74-.36c1.26,3.67.77,7.64,2.32,11.25a1.52,1.52,0,0,0,1.7.69,12.16,12.16,0,0,0,8-9.14c.43-1.88-2.46-2.68-2.89-.8a9.19,9.19,0,0,1-5.95,7l1.7.69c-1.43-3.31-.86-7.14-2-10.54a1.52,1.52,0,0,0-2.74-.36c-2.61,3.72-4.49,8.94-9.29,10.25l1.9,1.45c1.26-12.32,5.93-24.13,5.92-36.61,0-5.69-.65-11.78-3.6-16.76-2.45-4.15-6.15-7.29-9.95-10.15C126.6,44.24,121.8,41.1,117.8,37A1.52,1.52,0,0,0,115.24,38c.09,3.87.13,7.74,0,11.61l1.9-1.44c-5.27-1.42-9.93-5.34-13.73-9.1-3.54-3.5-7.58-8-8.58-13-.38-1.89-3.27-1.09-2.9.8Z" style="fill: #68ba00"/>
      <path d="M39.84,99.4c13.82,1.87,27.67,4.46,41.68,4,6.56-.23,13.06-1.35,19.59-2,6.35-.63,12.71-1.2,19-2.1a96.43,96.43,0,0,0,20.6-5c1.78-.68,1-3.59-.8-2.9-11.69,4.46-24.29,5.55-36.64,6.76-6.29.61-12.56,1.63-18.85,2.06a121.29,121.29,0,0,1-20.87-.63c-7.67-.8-15.29-2-22.93-3.08a1.55,1.55,0,0,0-1.84,1,1.5,1.5,0,0,0,1,1.84Z" style="fill: #68ba00"/>
      <path d="M35.14,22.93c-3,0-4.78-1.54-6.07-4.15-1.18-2.39-1.91-5.05-3.75-7.06S20.1,8.17,17.56,9s-2.93,3.48-2.88,5.69a49.9,49.9,0,0,0,1.57,9.23L17.3,22c-5.14,1.75-9.91-2.77-13.61-5.72a1.52,1.52,0,0,0-2.5.66A19.88,19.88,0,0,0,0,21a1.58,1.58,0,0,0,.69,1.7,92.56,92.56,0,0,0,12.94,8.42A46.13,46.13,0,0,0,28.38,35.7,1.56,1.56,0,0,0,30.07,35C32.26,31,34.6,26.66,39,24.7c1.75-.79.23-3.38-1.52-2.59-4.81,2.17-7.54,7-10,11.39l1.7-.69a44.26,44.26,0,0,1-14.33-4.49A95.23,95.23,0,0,1,2.24,20.07l.69,1.69a20.56,20.56,0,0,1,1.15-4l-2.51.66c4.57,3.66,10.21,8.65,16.53,6.5a1.56,1.56,0,0,0,1-1.85,64.5,64.5,0,0,1-1.38-7.18,9.72,9.72,0,0,1,.06-3.1c.16-.69.3-1,.85-1C20.57,11.55,23,13.28,24,15c1.24,2.11,1.87,4.52,3.17,6.6a8.92,8.92,0,0,0,7.94,4.31,1.5,1.5,0,0,0,0-3Z" style="fill: #68ba00"/>
      <path d="M15.73,28A14,14,0,0,0,5.17,33.32a15.26,15.26,0,0,0-3,11.88,1.52,1.52,0,0,0,1.85,1,33.44,33.44,0,0,0,9.59-3.81c2.81-1.72,5.55-4.23,6-7.67a9,9,0,0,0-1.53-6c-1-1.63-3.62-.12-2.59,1.52a8,8,0,0,1,1,2.11,5,5,0,0,1,.19,1.79c0,.34,0,0,0,.27s-.06.28-.1.43-.1.32-.15.49,0,0-.1.25a8.25,8.25,0,0,1-1,1.54A18.89,18.89,0,0,1,8,41.85a37.18,37.18,0,0,1-4.81,1.5L5,44.4C4,37.81,8.94,31.24,15.73,31c1.93-.06,1.94-3.06,0-3Z" style="fill: #68ba00"/>
      <path d="M29.43,16.65c1-3.13,3.89-5.2,6.66-6.69A47.81,47.81,0,0,1,48.36,5.73,93.76,93.76,0,0,1,72.79,3.47c14.33.59,28.68-1.22,43,0,10.28.9,20.34,3.76,28.58,10.17,14.51,11.3,20.48,30,23.14,47.54a195.84,195.84,0,0,1,2,27.59c0,5.42.26,10.84.24,16.26,0,7-.23,14.19-1.82,21a19.06,19.06,0,0,1-3,7.42,5.8,5.8,0,0,1-1.95,1.65,4.7,4.7,0,0,1-2.31.28,9.34,9.34,0,0,1-3.47-1.47,1.52,1.52,0,0,0-2.06.54,36.07,36.07,0,0,1-8.35,10.41c-3.08,2.75-7.38,5.91-11.77,5.46a7.79,7.79,0,0,1-5.6-3.9,1.52,1.52,0,0,0-2.36-.3c-3.76,4.14-7.58,8.59-13,10.59-2.26.84-5,1.69-7.43,1.17a23.28,23.28,0,0,1-4.91-2.22,29,29,0,0,0-3.41-1.4,6.84,6.84,0,0,1-1.42-.55c-.33-.21-.33-.24-.42-.38s.15.32,0,0-.13-.35-.22-.53a2.26,2.26,0,0,0-.42-.59,3.51,3.51,0,0,0-2.27-.81,8.13,8.13,0,0,0-2.87.13,10.34,10.34,0,0,0-2,1c-1.65.92-3.28,1.89-4.93,2.8a30,30,0,0,1-16.61,3.28,11,11,0,0,1-6-2.06,28,28,0,0,1-3.46-3.91,22.25,22.25,0,0,0-5.19-4.43c-1.3-.84-2.88-2-4.51-1.87-1.24.07-2.2.93-3.29,1.4a14.91,14.91,0,0,1-6.74,1C26.55,148.26,18.28,136,18.1,125.3a1.52,1.52,0,0,0-2.56-1.06c-.18.18-.36.35-.55.51s0,0-.28.22l-.47.28c-.37.21.14,0-.29.12-.12,0-.59.1-.13.06a2,2,0,0,1-.42,0c-.35,0,.29.08-.1,0s0,.06-.21-.06l-.38-.23c-.06,0,.11.13-.18-.15a4.86,4.86,0,0,1-.6-.68,16,16,0,0,1-1.2-2.2c-2.08-4.89-2.79-10.48-3.41-15.71-.7-5.82-1.09-11.69-1.27-17.55a82,82,0,0,1,1.13-17.9c2.26-12.17,7.38-23.5,12-34.88.73-1.79-2.17-2.56-2.89-.8C11.94,46,7.13,56.63,4.71,68A84.5,84.5,0,0,0,3,88.08c.18,6.16.58,12.32,1.31,18.43.68,5.66,1.44,11.62,3.72,16.9.81,1.86,1.95,3.9,3.92,4.71,2.13.88,4.19-.26,5.69-1.76L15.1,125.3c.18,10.5,6.8,21.25,16.69,25.22a18.63,18.63,0,0,0,14.63-.16c.51-.25,1-.56,1.5-.82.36-.2-.12,0,.27-.11-.41.07,0,0,.05,0s-.12-.06.26.08a17.18,17.18,0,0,1,5.43,3.57c1.42,1.34,2.51,2.94,3.79,4.39a12,12,0,0,0,4.76,3.3,22.46,22.46,0,0,0,8.81,1,36.14,36.14,0,0,0,10.12-2.05c3.62-1.27,6.75-3.44,10.13-5.21.18-.09.36-.06,0,0a3.74,3.74,0,0,1,.58,0c.51,0,1,0,1.55,0,0,0,.31.07.3.08s-.41-.33-.41-.33-.06.29,0-.12a3.25,3.25,0,0,0,.26.63c1,1.91,3.32,2.24,5.11,3,2.12.87,4,2.23,6.23,2.91,2.64.83,5.48.31,8.07-.44,6.75-2,11.36-6.86,15.93-11.9l-2.35-.3a11.43,11.43,0,0,0,6.1,5,11.57,11.57,0,0,0,7.12-.36c5.19-1.84,9.59-5.81,13.09-10a34.16,34.16,0,0,0,4.59-6.66l-2.05.54c2.31,1.44,5.17,2.5,7.88,1.58,2.46-.83,4.14-3,5.23-5.25,3-6.3,3.48-13.87,3.79-20.74.29-6.35.13-12.71,0-19.06-.21-8.3-.25-16.56-1.11-24.82-1.92-18.58-6.7-38.61-20.11-52.42A50.28,50.28,0,0,0,126,2C111.63-1.18,96.68.33,82.11.56,76.93.63,71.75.25,66.57.43A107.74,107.74,0,0,0,53.4,1.72,71.35,71.35,0,0,0,39.52,5.17c-3.75,1.4-7.66,3.25-10.39,6.27a11.76,11.76,0,0,0-2.59,4.42c-.58,1.84,2.32,2.63,2.89.79Z" style="fill: #68ba00"/>
      <path d="M46.33,119.44c3.66,4.3,9.11,6.75,14.4,8.37a87,87,0,0,0,19.43,3.28c13.84,1,28,.26,41-5.08a68.74,68.74,0,0,0,22.27-14.74,1.5,1.5,0,0,0-2.12-2.12A66.67,66.67,0,0,1,100.23,128a127.47,127.47,0,0,1-17.26.22,94.17,94.17,0,0,1-18.69-2.56c-5.75-1.47-11.87-3.72-15.83-8.37-1.25-1.47-3.36.66-2.12,2.12Z" style="fill: #68ba00"/>
      <path d="M58.2,107.77c-.53,2.58-.38,5.51,1.41,7.59a1.51,1.51,0,0,0,2.12,0,1.54,1.54,0,0,0,0-2.12c-.26-.31.12.2,0,0l-.18-.28-.16-.29c0-.06,0-.11-.07-.16l.05.11a5.07,5.07,0,0,0-.23-.69c-.06-.23-.1-.46-.14-.69s0-.07,0,.15l0-.19,0-.4c0-.27,0-.55,0-.82s0-.56.06-.84,0-.14,0,.08l0-.21c0-.14.05-.28.08-.42a1.5,1.5,0,1,0-2.89-.8Z" style="fill: #68ba00"/>
      <path d="M71.42,110.21a23.83,23.83,0,0,0,1.08,7.55,1.5,1.5,0,1,0,2.89-.8,23.71,23.71,0,0,1-.8-3.43c-.06-.43,0,.31,0-.12,0-.15,0-.31,0-.46s0-.57-.07-.85c0-.63,0-1.26,0-1.89a1.52,1.52,0,0,0-1.5-1.5,1.54,1.54,0,0,0-1.5,1.5Z" style="fill: #68ba00"/>
      <path d="M84.75,111.86a6.78,6.78,0,0,0,0,4,4.67,4.67,0,0,0,1.13,1.77,5.76,5.76,0,0,0,2,1.19,1.5,1.5,0,0,0,1.85-1,1.52,1.52,0,0,0-.15-1.16,1.87,1.87,0,0,0-.9-.69c-.24-.09.38.18,0,0l-.19-.1-.38-.23c-.3-.21.23.2,0,0l-.13-.12a1.37,1.37,0,0,1-.17-.17s-.22-.27,0,0,0,0,0,0l-.11-.18-.09-.17c-.14-.29.08.24,0,.11a4.92,4.92,0,0,1-.21-.84l0,.4a6,6,0,0,1,0-1.4l-.05.4a8.14,8.14,0,0,1,.19-1,1.5,1.5,0,0,0-2.9-.79Z" style="fill: #68ba00"/>
      <path d="M99,111.23a9.19,9.19,0,0,0,2.48,6.17,1.51,1.51,0,0,0,2.12,0,1.53,1.53,0,0,0,0-2.12c-.13-.14-.25-.32-.39-.45.3.28.11.14,0,0l-.2-.28a10.63,10.63,0,0,1-.53-.93,2.29,2.29,0,0,0-.1-.23c.21.42,0,.13,0,0s-.12-.33-.17-.5a8.77,8.77,0,0,1-.25-1.13l.06.4a6.5,6.5,0,0,1-.07-1,1.5,1.5,0,0,0-3,0Z" style="fill: #68ba00"/>
      <path d="M113.35,107.77a7.35,7.35,0,0,0-.14,4.28,3.92,3.92,0,0,0,1.14,1.72,4.49,4.49,0,0,0,2.09,1,1.62,1.62,0,0,0,1.16-.15,1.5,1.5,0,0,0-.36-2.74,4.64,4.64,0,0,1-.51-.11l-.23-.08c-.23-.08.36.17.15.06a3.59,3.59,0,0,1-.38-.21c-.19-.13.34.29.1.08l-.13-.13-.11-.13c-.16-.16.24.38.08.11l-.18-.34c-.06-.11.17.44.06.15L116,111a3.29,3.29,0,0,1-.09-.43l.06.4a5.87,5.87,0,0,1,0-1.51l0,.4a11.26,11.26,0,0,1,.27-1.31,1.5,1.5,0,1,0-2.89-.8Z" style="fill: #68ba00"/>
      <path d="M125.55,107.15v3.06a1.54,1.54,0,0,0,.44,1.06,1.5,1.5,0,0,0,2.56-1.06v-3.06a1.54,1.54,0,0,0-.44-1.06,1.5,1.5,0,0,0-2.56,1.06Z" style="fill: #68ba00"/>
    </g>
  </g>
</svg>
