<?xml version="1.0" standalone="no"?>
<!DOCTYPE svg PUBLIC "-//W3C//DTD SVG 20010904//EN"
 "http://www.w3.org/TR/2001/REC-SVG-20010904/DTD/svg10.dtd">
<svg version="1.0" xmlns="http://www.w3.org/2000/svg"
 width="512.000000pt" height="512.000000pt" viewBox="0 0 512.000000 512.000000"
 preserveAspectRatio="xMidYMid meet">
<metadata>
Created by potrace 1.11, written by Peter Selinger 2001-2013
</metadata>
<g transform="translate(0.000000,512.000000) scale(0.100000,-0.100000)"
fill="#000000" stroke="none">
<path d="M2334 4598 c-3 -5 -9 -6 -14 -3 -4 3 -11 -2 -14 -11 -4 -11 -14 -15
-31 -12 -15 3 -26 0 -29 -9 -3 -8 -10 -12 -16 -8 -9 6 -15 -11 -24 -65 -3 -14
-5 -27 -6 -30 -2 -3 -2 -9 -1 -13 1 -4 -9 -2 -21 4 -20 11 -22 10 -10 -3 10
-12 10 -17 1 -20 -9 -3 -9 -9 0 -25 14 -27 14 -43 0 -43 -5 0 -7 6 -3 13 5 9
3 9 -7 -1 -9 -8 -10 -15 -4 -20 16 -11 19 -46 3 -36 -9 6 -9 3 1 -10 12 -15
13 -21 2 -38 -10 -17 -10 -22 0 -29 7 -4 16 -6 19 -4 4 2 6 -6 5 -17 -1 -12
-10 -24 -20 -28 -17 -6 -17 -7 3 -12 24 -7 32 -48 10 -48 -9 0 -8 -4 2 -10 13
-8 12 -10 -3 -10 -10 0 -15 -5 -12 -10 4 -6 3 -16 -2 -23 -14 -18 -14 -59 -1
-51 8 5 9 1 4 -12 -5 -10 -11 -27 -13 -36 -3 -10 -9 -18 -14 -18 -5 0 -9 -5
-9 -11 0 -5 6 -7 13 -3 8 5 8 2 -2 -9 -11 -13 -11 -17 -1 -17 8 0 10 -3 7 -7
-4 -3 -1 -13 6 -21 9 -13 9 -14 0 -8 -9 5 -13 0 -13 -14 0 -14 4 -19 13 -14
10 6 10 4 0 -7 -16 -16 -17 -33 -2 -23 6 3 3 -6 -7 -22 -11 -15 -14 -25 -8
-21 7 4 14 -2 17 -14 4 -16 2 -19 -10 -15 -12 5 -13 4 -5 -7 14 -17 6 -27 -16
-21 -10 3 -6 -2 8 -10 14 -9 19 -15 11 -16 -11 0 -9 -4 5 -15 10 -8 14 -15 7
-15 -6 0 -9 -9 -5 -22 3 -14 1 -19 -6 -14 -14 8 -8 -24 9 -56 16 -29 19 -67 6
-75 -6 -4 -7 -1 -2 7 5 8 4 11 -2 7 -6 -4 -9 -19 -7 -33 1 -15 -5 -39 -14 -53
-16 -25 -16 -25 1 -12 10 8 17 9 17 3 0 -6 8 -13 18 -15 15 -4 15 -5 1 -6 -9
0 -19 -8 -23 -16 -4 -13 -2 -14 14 -5 14 7 20 7 20 0 0 -5 -6 -10 -12 -10 -8
0 -6 -5 4 -10 13 -8 16 -22 9 -48 -1 -1 -15 5 -32 13 -29 16 -30 15 -20 -3 6
-11 7 -23 3 -27 -4 -5 -1 -5 6 -1 13 8 17 -6 5 -18 -14 -14 -9 -45 9 -49 10
-3 17 -11 15 -19 -2 -7 -2 -10 0 -5 7 11 20 8 26 -7 4 -10 -4 -12 -31 -11 -21
2 -31 1 -24 -2 6 -3 9 -9 6 -15 -3 -5 2 -15 12 -22 20 -15 12 -52 -8 -40 -10
6 -11 5 -1 -8 7 -8 9 -19 5 -23 -4 -5 -2 -5 4 -2 6 4 10 -2 9 -13 -2 -27 -14
-37 -25 -20 -7 11 -9 9 -7 -8 0 -12 5 -22 10 -22 4 0 5 -5 2 -10 -4 -6 -11 -7
-17 -4 -13 8 -3 -12 21 -40 9 -11 12 -17 6 -14 -5 3 -19 -6 -29 -20 -11 -14
-13 -22 -5 -17 20 13 49 13 41 1 -7 -11 -8 -16 -11 -36 0 -5 -10 -10 -21 -10
-23 0 -44 42 -37 77 2 12 0 20 -5 17 -4 -3 -11 2 -14 11 -4 9 -13 14 -21 11
-8 -3 -11 -1 -8 4 3 6 1 10 -4 10 -19 0 -26 2 -43 11 -18 10 -25 30 -10 28 19
-3 25 2 12 11 -13 8 -12 10 3 10 9 0 17 4 17 9 0 4 -11 7 -25 6 -14 -2 -25 1
-25 6 0 11 -40 54 -52 57 -5 1 -9 5 -10 10 -3 12 -26 32 -38 32 -6 0 -8 5 -5
10 3 6 1 10 -5 10 -6 0 -9 4 -5 9 7 12 -29 33 -41 23 -5 -4 -3 0 4 9 10 14 10
18 -4 23 -9 3 -21 3 -26 -1 -7 -3 -8 -1 -4 5 6 11 -12 17 -36 13 -5 0 -8 4 -8
10 0 8 -6 7 -17 -2 -10 -8 -14 -9 -10 -2 4 6 3 14 -3 18 -6 4 -8 10 -5 15 3 5
0 12 -6 16 -8 5 -9 3 -4 -6 6 -9 4 -11 -4 -6 -7 5 -10 15 -6 23 5 14 3 14 -12
2 -15 -12 -16 -12 -11 3 9 21 -2 31 -19 17 -16 -14 -18 -33 -1 -23 8 5 9 2 5
-9 -4 -12 -1 -17 11 -18 9 0 12 -3 5 -5 -7 -3 -9 -13 -6 -22 3 -10 1 -13 -4
-7 -4 6 -15 11 -23 13 -8 2 -16 7 -18 12 -2 5 -9 7 -17 4 -8 -3 -11 -12 -8
-20 6 -16 -13 -20 -20 -4 -3 6 -4 5 -3 -2 5 -19 -14 -49 -25 -42 -6 3 -8 12
-5 20 3 8 1 14 -5 14 -6 0 -20 10 -31 23 -11 12 -17 16 -13 10 3 -7 1 -13 -4
-13 -6 0 -11 5 -11 11 0 5 -5 7 -10 4 -6 -4 -7 -11 -4 -17 4 -6 -1 -6 -14 1
-18 9 -19 8 -14 -11 4 -16 2 -19 -8 -13 -9 6 -12 4 -8 -6 5 -12 -1 -14 -23
-11 -16 2 -32 8 -35 13 -3 5 3 6 13 3 15 -5 15 -4 3 4 -9 7 -19 7 -26 2 -6 -6
-14 -6 -19 -2 -4 4 -5 -3 -2 -16 3 -12 1 -20 -4 -16 -5 3 -9 1 -9 -5 0 -5 5
-13 10 -16 7 -4 7 -11 2 -18 -5 -7 -8 -22 -7 -34 1 -13 -4 -23 -11 -23 -7 0
-14 -5 -16 -12 -2 -6 -10 -8 -17 -4 -7 5 -10 15 -6 25 4 11 3 13 -5 5 -12 -12
-3 -44 12 -44 12 0 38 -26 38 -38 0 -6 6 -13 13 -15 9 -4 9 -6 -1 -6 -16 -1
24 -46 41 -46 7 -1 11 -7 9 -15 -1 -10 4 -8 14 5 12 14 15 15 11 4 -3 -9 3
-26 13 -37 10 -11 16 -23 13 -26 -4 -3 4 -6 16 -6 12 0 19 -4 16 -10 -8 -13 8
-13 21 0 7 7 11 6 12 -5 1 -8 3 -22 4 -30 1 -8 5 -15 10 -15 4 0 7 -3 7 -7 -4
-26 2 -35 15 -24 12 10 14 8 9 -11 -4 -18 -3 -20 6 -8 9 13 11 13 11 -2 0 -9
5 -20 12 -24 7 -5 9 -2 5 9 -4 11 -2 14 9 10 7 -3 14 -12 14 -21 0 -8 3 -13 6
-9 4 3 13 0 20 -8 17 -17 18 -29 2 -19 -7 4 -8 3 -4 -4 4 -6 14 -8 24 -5 14 5
14 3 -3 -17 -12 -14 -14 -20 -5 -15 8 5 24 11 35 13 19 2 19 2 1 -11 -15 -11
-16 -16 -6 -22 9 -5 11 -4 6 3 -4 7 -2 12 3 12 6 0 11 -5 11 -11 0 -5 5 -7 10
-4 6 3 17 0 25 -9 11 -10 12 -15 3 -18 -7 -3 -2 -7 10 -10 15 -4 20 -3 15 5
-4 7 1 5 11 -3 10 -8 14 -16 7 -18 -7 -2 -7 -8 2 -17 7 -7 15 -11 20 -8 4 2 7
-3 7 -13 0 -13 3 -14 14 -5 12 10 14 8 12 -13 -2 -14 1 -23 5 -20 5 3 9 0 9
-5 0 -6 7 -11 16 -11 8 0 12 -4 9 -10 -3 -5 -1 -10 5 -10 6 0 8 -4 5 -10 -3
-5 -1 -10 5 -10 6 0 8 -4 5 -10 -3 -5 -1 -10 5 -10 6 0 8 -5 4 -12 -5 -8 -2
-9 12 -4 16 6 16 4 -4 -17 -16 -17 -18 -24 -8 -24 8 0 13 4 10 9 -3 4 9 8 26
8 22 0 31 -4 27 -12 -7 -21 10 -56 35 -68 22 -11 22 -10 -2 9 -14 11 -21 21
-16 21 5 0 3 6 -3 14 -9 10 -9 16 -1 21 6 4 14 4 17 1 4 -3 1 -6 -6 -6 -7 0
-9 -5 -6 -10 4 -6 12 -7 18 -3 8 4 8 2 -1 -9 -10 -13 -10 -17 2 -21 8 -3 17
-1 19 6 3 7 5 3 6 -8 2 -45 5 -55 17 -55 8 0 11 -6 7 -17 -4 -11 -3 -14 5 -9
7 4 12 3 12 -3 0 -5 -6 -12 -12 -14 -8 -3 -6 -6 4 -6 12 -1 15 -6 11 -18 -4
-10 -2 -14 4 -10 15 9 44 -3 37 -14 -3 -5 0 -9 6 -9 8 0 7 -6 -1 -21 -8 -15
-8 -19 0 -15 6 4 11 2 11 -4 0 -6 5 -8 11 -4 8 4 7 9 -2 16 -12 8 -12 9 0 6
16 -5 25 -39 9 -35 -6 1 -13 -4 -16 -12 -3 -9 0 -11 9 -7 8 4 3 -2 -11 -13
-19 -16 -20 -20 -6 -14 13 4 17 3 12 -5 -4 -7 -2 -12 6 -12 9 0 9 -3 -2 -10
-13 -9 -13 -10 0 -10 9 0 15 -9 15 -24 0 -13 -3 -22 -7 -19 -5 2 -8 -1 -8 -6
0 -6 8 -11 18 -12 11 -1 9 -4 -8 -9 -24 -8 -24 -8 -2 -9 12 -1 22 -6 22 -12 0
-5 -6 -7 -12 -3 -8 5 -7 0 2 -11 8 -10 10 -16 4 -12 -7 4 -15 0 -18 -9 -3 -8
-2 -13 3 -10 14 9 21 -20 8 -34 -9 -10 -8 -12 5 -7 12 4 15 2 11 -9 -3 -7 0
-14 7 -14 6 0 8 -5 5 -10 -4 -6 -11 -8 -16 -5 -5 4 -9 1 -9 -5 0 -6 -5 -8 -12
-4 -9 5 -9 2 1 -9 12 -15 11 -17 -3 -17 -16 0 -16 -1 -2 -16 18 -17 21 -28 6
-19 -5 3 -10 1 -10 -4 0 -6 6 -11 13 -12 6 0 3 -4 -8 -9 -11 -5 -15 -9 -8 -9
7 -1 10 -8 7 -16 -4 -8 -10 -12 -15 -9 -5 3 -9 0 -9 -5 0 -6 7 -11 16 -11 12
0 14 -4 7 -12 -10 -13 8 -63 19 -53 2 3 5 -2 5 -10 0 -8 -3 -12 -6 -10 -4 2
-14 -3 -24 -10 -15 -11 -15 -14 -3 -18 8 -3 17 -1 19 6 2 7 7 9 11 6 4 -4 0
-13 -7 -21 -10 -10 -12 -20 -6 -31 6 -10 5 -18 -2 -23 -8 -5 -9 -3 -4 6 6 9 4
11 -4 6 -9 -6 -9 -12 2 -24 8 -10 20 -26 26 -37 11 -18 12 -18 6 5 -5 22 -4
23 5 7 9 -14 9 -22 0 -33 -10 -11 -10 -17 0 -29 7 -8 16 -12 21 -9 5 3 9 1 9
-5 0 -5 -5 -13 -10 -16 -6 -4 -8 -11 -5 -16 4 -5 0 -9 -7 -9 -8 0 -6 -5 5 -11
14 -8 15 -14 7 -24 -16 -19 -21 -55 -7 -55 7 0 6 -4 -3 -10 -9 -6 -11 -10 -3
-10 7 0 10 -7 6 -17 -5 -12 -3 -14 7 -8 9 5 11 4 6 -3 -4 -7 -16 -12 -27 -12
-10 0 -19 -4 -19 -9 0 -6 9 -8 21 -6 17 3 19 1 9 -9 -8 -11 -8 -15 2 -19 9 -4
10 -6 1 -6 -7 -1 -10 -8 -6 -18 4 -11 3 -14 -5 -9 -8 5 -10 1 -5 -10 5 -13 3
-16 -10 -11 -15 5 -15 3 -4 -16 6 -12 17 -25 22 -29 6 -5 5 -8 -3 -8 -10 0
-10 -4 2 -16 9 -8 16 -21 16 -27 0 -7 -4 -6 -10 3 -8 13 -12 12 -27 -4 -17
-19 -17 -19 1 -5 18 13 19 13 8 -8 -14 -26 -15 -36 -3 -29 5 3 17 -6 26 -21
17 -25 17 -26 -1 -19 -17 6 -17 6 -1 -12 9 -10 14 -22 10 -25 -3 -4 -1 -7 5
-7 6 0 9 -6 6 -13 -6 -18 21 -41 37 -31 8 4 9 3 5 -5 -4 -6 -13 -11 -19 -10
-27 3 -36 -2 -34 -19 0 -10 7 -19 14 -19 9 0 10 4 2 13 -8 10 -5 12 15 10 14
-1 29 -6 34 -11 4 -4 2 -5 -4 -2 -7 4 -15 0 -18 -9 -3 -8 -2 -13 2 -10 5 3 9
-1 9 -9 0 -8 -4 -12 -9 -9 -4 3 -8 0 -8 -6 0 -6 -6 -8 -12 -4 -10 5 -10 4 -1
-6 6 -7 9 -19 6 -28 -5 -11 -3 -13 7 -7 10 6 12 4 7 -8 -6 -16 -4 -16 30 -2
36 15 36 15 18 -5 -10 -11 -15 -23 -12 -27 4 -3 7 -1 7 5 0 7 7 12 15 12 8 0
15 -5 15 -11 0 -5 -5 -7 -12 -3 -6 4 -8 3 -5 -4 4 -5 17 -8 30 -4 20 5 21 4 8
-11 -12 -15 -12 -17 3 -11 9 3 16 1 16 -5 0 -6 5 -11 11 -11 5 0 7 5 4 10 -3
6 -1 10 4 10 12 0 15 -26 4 -33 -5 -2 -3 -2 4 -1 7 2 19 -3 27 -11 10 -10 16
-11 18 -4 3 8 15 6 38 -6 32 -17 34 -17 48 1 13 18 14 18 8 -3 -4 -12 -2 -24
5 -29 7 -4 9 -3 6 3 -4 6 0 13 8 17 8 3 15 2 15 -3 0 -4 10 -7 23 -6 12 1 30
-2 40 -7 9 -5 17 -5 16 -1 -4 22 2 25 14 8 11 -14 16 -15 22 -5 6 9 4 11 -6 5
-8 -5 -11 -4 -6 1 16 17 59 12 64 -7 7 -24 11 -24 41 4 14 12 22 17 19 11 -4
-7 0 -17 8 -24 8 -7 12 -17 8 -23 -4 -6 -1 -7 6 -2 8 4 18 -1 27 -14 9 -12 19
-19 24 -16 4 3 10 -2 14 -10 4 -12 10 -13 31 -3 14 6 22 14 17 17 -14 10 -22
55 -12 71 5 8 10 10 10 4 0 -7 9 -14 19 -17 15 -3 18 -1 14 11 -5 11 -3 13 8
7 10 -7 9 -1 -4 18 -15 23 -15 27 -2 27 8 0 15 5 15 11 0 5 -6 7 -12 3 -9 -5
-9 -2 1 9 9 12 10 17 2 17 -7 0 -9 5 -6 10 4 6 11 7 17 4 8 -5 9 -1 5 10 -4
10 -7 22 -7 27 0 6 -5 7 -12 3 -7 -4 -2 6 10 23 16 23 18 33 10 41 -9 9 -9 12
0 12 7 0 12 6 12 14 0 8 6 17 13 20 6 3 1 4 -13 1 -14 -3 -19 -2 -12 1 6 3 9
11 6 16 -4 7 -2 8 4 4 16 -10 15 7 0 23 -11 12 -10 13 6 7 16 -5 17 -4 6 9 -7
8 -10 24 -7 35 3 12 -1 24 -11 30 -15 8 -15 9 3 10 15 0 17 2 6 9 -11 7 -10
14 5 37 11 15 13 25 7 21 -7 -5 -13 -4 -13 2 0 5 5 13 10 16 6 4 7 13 1 23 -4
9 -7 26 -5 36 1 11 -2 28 -8 39 -9 17 -8 19 8 13 13 -4 11 0 -6 14 -17 13 -20
20 -10 20 13 0 13 1 0 10 -13 9 -7 14 13 11 14 -2 7 8 -28 43 -21 21 -41 33
-50 30 -10 -4 -18 3 -25 21 -13 34 -13 35 8 36 11 0 12 2 4 6 -10 4 -10 8 0
21 10 12 10 14 1 8 -9 -5 -13 0 -13 14 0 15 -5 20 -14 17 -20 -8 -14 20 9 36
13 10 15 16 6 21 -9 6 -7 12 6 22 17 12 17 13 1 14 -19 0 -26 20 -7 20 5 0 8
4 5 9 -4 5 0 11 6 14 10 3 8 9 -5 24 -17 20 -14 59 4 47 5 -3 6 2 3 10 -3 9
-9 16 -13 16 -4 0 -7 18 -6 40 1 22 -3 40 -9 40 -6 0 -1 7 11 15 21 15 24 48
7 64 -4 3 -4 -2 -1 -12 4 -11 3 -16 -3 -12 -5 3 -8 20 -6 38 2 18 4 41 5 52 1
16 3 17 10 6 7 -10 9 -7 8 12 -1 15 -6 27 -12 27 -5 0 -3 5 5 10 13 9 13 11 0
20 -13 9 -13 11 0 20 8 5 11 10 5 10 -5 0 -15 11 -22 25 -8 19 -8 23 0 18 7
-4 6 1 -2 10 -10 13 -10 17 -1 17 9 0 7 8 -5 26 -9 15 -12 23 -6 20 6 -4 16 5
23 21 11 27 12 27 16 5 2 -16 8 -22 18 -18 9 3 12 1 9 -4 -3 -6 -1 -10 5 -10
6 0 8 -5 4 -12 -6 -10 -5 -10 8 -1 8 7 19 9 23 5 5 -4 6 0 3 9 -4 9 -1 16 8
16 7 0 11 -5 8 -11 -3 -6 2 -2 10 8 9 11 16 14 16 8 0 -7 12 -1 27 13 15 14
32 25 38 25 5 0 3 -5 -5 -11 -11 -8 -8 -9 14 -4 27 6 28 5 16 -12 -11 -15 -11
-16 0 -6 9 9 19 9 32 2 22 -12 34 -6 24 10 -4 6 -14 8 -24 5 -9 -3 -7 1 6 8
12 8 20 16 17 19 -3 3 5 5 18 4 12 -1 23 -9 25 -18 4 -20 11 -21 32 -6 12 9
12 10 -4 5 -15 -5 -17 -4 -8 7 7 8 9 17 5 20 -3 4 -1 7 4 7 6 0 13 -5 15 -11
2 -7 17 -13 33 -15 22 -2 26 -1 15 6 -13 8 -13 10 2 10 9 0 18 -6 21 -12 3 -7
4 -3 4 9 -1 12 -5 19 -10 16 -5 -3 -4 4 2 14 6 11 8 22 6 25 -3 3 2 5 10 5 11
0 12 -4 3 -14 -9 -11 -7 -12 7 -7 11 5 16 3 12 -2 -3 -6 3 -11 14 -11 10 -1
19 4 19 12 0 8 5 17 12 21 8 5 9 1 5 -12 -7 -18 -7 -18 8 0 8 11 15 14 15 7 0
-7 5 -9 11 -5 8 4 7 9 -2 15 -7 4 -17 5 -21 3 -4 -3 -8 0 -8 6 0 6 -4 9 -9 6
-11 -7 -8 21 4 31 4 4 5 3 1 -4 -3 -6 -2 -14 4 -18 13 -8 42 20 32 30 -4 5 -1
5 6 1 7 -5 11 -10 8 -13 -3 -3 0 -11 6 -17 9 -10 16 -8 32 8 12 12 21 25 21
31 0 5 11 12 25 15 14 4 24 13 22 20 -2 10 0 11 11 2 11 -10 17 -9 26 1 6 8 8
17 4 20 -9 9 17 37 34 37 15 0 43 23 43 36 0 5 12 19 28 32 15 13 20 21 12 17
-10 -4 -9 -2 3 8 9 8 17 19 17 25 0 6 7 9 15 6 11 -5 13 -10 5 -19 -7 -9 -7
-15 -1 -19 5 -4 16 3 24 14 7 11 17 17 20 13 4 -3 7 -1 7 6 0 7 5 9 10 6 6 -3
10 0 10 9 0 8 6 17 13 20 6 4 2 4 -10 2 -19 -3 -20 -2 -10 15 6 10 15 19 20
19 4 0 5 -4 2 -10 -4 -6 1 -7 11 -3 14 5 13 8 -6 18 -15 8 -19 15 -11 19 6 4
11 3 11 -2 0 -5 9 -12 21 -15 16 -4 19 -2 15 10 -5 13 -4 14 9 3 17 -14 18
-10 15 39 -1 22 2 31 9 26 6 -3 9 -10 6 -15 -3 -5 -1 -12 5 -15 6 -4 9 -1 8 6
-2 6 3 14 11 17 9 3 11 0 6 -9 -5 -8 -4 -11 0 -6 5 4 10 17 12 28 3 19 2 19
-13 4 -11 -11 -20 -13 -28 -5 -7 5 -16 7 -19 3 -4 -3 -7 -3 -7 0 0 8 25 33 55
57 11 9 16 10 11 3 -4 -8 -2 -11 7 -7 15 5 19 34 4 31 -5 -1 -11 8 -13 20 -3
17 0 20 16 16 11 -3 18 -9 15 -13 -6 -10 16 -18 33 -13 6 3 12 9 12 14 0 6 -4
8 -9 4 -15 -9 -24 16 -11 28 10 9 11 9 5 -2 -6 -10 -4 -12 4 -7 9 6 9 11 -1
24 -10 12 -10 14 0 8 7 -4 12 -2 12 4 0 6 5 8 12 4 6 -4 8 -3 4 4 -3 6 -2 13
2 16 5 3 8 17 7 30 -2 18 1 23 11 19 8 -3 14 0 14 6 0 6 7 11 15 11 8 0 15 5
15 10 0 7 -7 7 -20 0 -11 -6 -26 -8 -32 -4 -12 8 29 29 47 25 6 -2 7 1 3 4 -4
4 -3 16 3 26 5 11 6 19 2 18 -22 -4 -33 3 -33 20 0 14 -6 19 -20 16 -11 -2
-23 2 -27 8 -9 14 -43 19 -43 6 0 -5 -5 -9 -11 -9 -5 0 -8 3 -5 8 2 4 -6 12
-19 18 -18 9 -22 9 -18 -2 3 -9 -4 -11 -23 -9 -16 1 -30 8 -32 14 -2 6 -16 11
-31 11 -15 0 -32 5 -39 12 -14 14 -45 20 -36 7 3 -5 0 -9 -6 -9 -6 0 -8 -5 -4
-12 6 -9 3 -9 -9 1 -14 11 -18 10 -28 -13 -7 -14 -16 -23 -20 -20 -5 3 -9 0
-9 -6 0 -6 -4 -9 -9 -5 -6 3 -8 14 -6 25 2 12 0 18 -6 15 -5 -4 -12 0 -15 8
-3 8 -12 14 -19 13 -18 -3 -32 -16 -17 -16 7 0 12 -7 12 -15 0 -14 -68 -50
-77 -41 -3 2 4 7 15 10 11 4 23 13 26 21 5 15 -17 11 -41 -7 -7 -5 -13 -4 -15
4 -3 8 -14 3 -32 -15 -15 -15 -28 -27 -29 -27 -2 0 -3 11 -3 25 0 14 4 25 8
25 4 0 8 -5 8 -11 0 -5 5 -7 10 -4 7 4 6 13 -1 27 -8 15 -13 17 -19 8 -4 -7
-13 -10 -19 -6 -7 5 -9 1 -5 -9 5 -11 2 -14 -10 -9 -10 4 -16 1 -16 -7 0 -7
-3 -9 -7 -6 -3 4 -11 -1 -18 -10 -11 -14 -12 -14 -18 1 -4 10 -3 15 3 11 5 -3
7 0 4 8 -2 7 -11 14 -19 14 -10 0 -11 -5 -5 -18 8 -13 5 -18 -15 -22 -19 -3
-25 0 -23 11 2 8 -5 16 -14 17 -28 5 -29 -10 -4 -33 18 -15 27 -17 36 -9 7 7
5 0 -5 -15 -17 -27 -35 -29 -35 -5 0 7 4 6 10 -3 6 -9 10 -10 10 -3 0 21 -18
24 -30 6 -10 -16 -11 -16 -7 4 4 20 3 21 -15 12 -18 -10 -19 -8 -13 13 3 12 3
19 -2 13 -12 -15 -47 -19 -37 -4 4 8 3 10 -5 5 -6 -4 -9 -11 -7 -15 3 -4 1
-13 -4 -21 -5 -8 -4 -23 1 -34 10 -20 10 -20 -5 -2 -9 10 -13 24 -9 30 3 6 0
6 -7 -1 -10 -9 -18 -8 -38 7 -29 23 -49 27 -30 6 7 -8 15 -13 18 -13 3 1 16
-6 29 -15 20 -14 22 -20 11 -33 -7 -8 -9 -15 -5 -15 4 0 2 -7 -5 -15 -13 -15
-35 -11 -25 6 4 5 1 9 -4 9 -6 0 -11 -5 -11 -12 0 -6 -3 -8 -7 -4 -5 4 0 14
10 21 21 15 19 35 -7 54 -14 10 -20 11 -26 2 -4 -7 -11 -11 -16 -10 -19 3 -44
-1 -43 -8 3 -20 -2 -34 -10 -29 -5 3 -11 -1 -15 -9 -3 -8 -1 -17 5 -21 6 -3 3
-12 -8 -21 -10 -8 -12 -12 -6 -8 9 4 11 1 7 -9 -3 -9 -11 -13 -18 -9 -7 4 -7
1 1 -9 7 -8 10 -18 6 -21 -3 -4 -1 -13 5 -20 9 -10 8 -14 -3 -14 -8 0 -15 10
-16 21 0 12 -3 16 -5 9 -4 -8 -13 -5 -29 9 -14 12 -22 25 -19 29 3 5 -3 6 -12
2 -11 -4 -13 -8 -6 -11 7 -2 9 -9 6 -14 -5 -7 -2 -8 6 -3 8 5 11 4 7 -2 -4 -6
-18 -8 -32 -5 -20 3 -24 1 -19 -12 3 -9 1 -23 -6 -31 -9 -10 -9 -15 -1 -15 6
0 11 5 11 10 0 6 5 10 11 10 5 0 8 -4 4 -9 -3 -5 3 -12 12 -15 11 -3 8 -4 -7
-3 -17 1 -24 -3 -22 -12 2 -8 -3 -11 -11 -8 -8 3 -20 0 -27 -6 -10 -9 -11 -9
-6 1 4 7 1 12 -8 12 -12 0 -14 5 -7 23 10 27 3 49 -12 41 -7 -3 -3 1 7 10 10
8 23 13 27 10 13 -7 -3 30 -15 38 -8 5 -7 14 2 29 8 11 10 19 5 16 -4 -3 -13
1 -20 8 -10 10 -9 14 4 19 12 5 13 9 3 21 -7 8 -9 15 -4 15 4 0 -1 6 -12 14
-17 13 -17 15 -2 21 17 7 21 45 4 45 -5 0 -6 3 -3 7 4 3 2 12 -4 19 -7 8 -6
14 2 20 8 5 9 3 4 -6 -5 -8 -4 -11 3 -6 6 4 9 13 6 21 -4 8 -11 12 -18 8 -6
-4 -5 1 3 10 7 9 10 17 6 17 -4 0 -1 8 6 17 8 9 9 14 3 10 -7 -4 -14 -1 -17 6
-6 15 -4 33 3 30 3 -1 6 7 6 18 0 10 -7 19 -16 20 -11 0 -12 2 -1 6 11 4 11 7
0 13 -10 7 -10 11 0 24 10 12 11 16 1 16 -7 0 -10 7 -6 16 3 8 2 13 -2 11 -4
-2 -16 5 -26 16 -14 14 -15 19 -4 15 8 -4 15 -1 15 8 0 7 -5 11 -11 8 -6 -3
-2 2 8 10 11 9 15 16 9 16 -5 0 -9 12 -8 28 1 15 -5 36 -14 47 -13 16 -13 18
-1 8 13 -10 15 -6 12 28 -2 21 -8 36 -13 33 -5 -3 -9 9 -9 26 0 18 -4 29 -10
25 -6 -3 -7 1 -4 9 4 10 -1 18 -11 22 -13 5 -14 9 -3 15 11 7 11 9 -1 9 -11 0
-11 3 -1 15 11 13 9 20 -11 41 -17 19 -19 23 -6 18 13 -5 16 -2 10 12 -5 13
-3 15 7 9 8 -5 4 5 -8 22 -12 17 -18 33 -12 35 11 3 14 37 7 81 -3 17 0 27 8
27 20 0 26 27 9 40 -15 13 -20 55 -5 46 5 -3 3 11 -4 32 -9 24 -10 43 -4 54 6
11 6 18 0 18 -5 0 -8 11 -7 24 1 16 5 21 12 15 15 -12 15 22 0 40 -8 11 -8 15
1 18 10 3 9 9 -3 21 -15 15 -15 16 2 22 16 6 16 7 1 13 -9 3 -17 11 -17 17 0
6 5 8 11 4 8 -5 8 -1 0 13 -6 11 -7 24 -3 29 4 5 -1 2 -10 -5 -18 -13 -18 -13
-8 34 5 23 -1 46 -10 40 -5 -3 -10 -2 -10 4 0 5 -7 17 -16 25 -11 12 -12 16
-2 16 7 0 2 7 -10 16 -12 8 -20 19 -18 23 3 4 -4 8 -15 8 -22 2 -24 -8 -7 -25
9 -9 9 -12 0 -12 -7 0 -12 4 -12 9 0 10 -39 27 -52 23 -4 -1 -5 4 -2 12 8 20
-12 28 -26 11 -11 -14 -15 -14 -33 2 -14 13 -18 13 -12 3 7 -12 6 -13 -7 -3
-8 7 -18 10 -21 6 -4 -3 -7 -1 -7 6 0 9 -12 12 -39 9 -28 -2 -37 0 -30 8 6 7
3 11 -7 11 -8 0 -17 -4 -20 -9z m-134 -222 c0 -12 -5 -7 -19 24 -11 24 -11 24
3 6 9 -11 16 -24 16 -30z m1594 -1251 c-4 -8 -11 -12 -17 -8 -8 5 -7 8 1 11 7
2 9 9 6 14 -4 7 -2 8 4 4 6 -4 9 -13 6 -21z m-1610 -20 c-4 -8 -11 -15 -16
-15 -6 0 -5 6 2 15 7 8 14 15 16 15 2 0 1 -7 -2 -15z m1586 1 c0 -2 -7 -7 -16
-10 -8 -3 -12 -2 -9 4 6 10 25 14 25 6z m-440 -12 c0 -8 -19 -13 -24 -6 -3 5
1 9 9 9 8 0 15 -2 15 -3z m123 -49 c-3 -8 -9 -15 -15 -15 -5 0 -6 5 -3 10 3 6
0 10 -7 10 -10 0 -9 3 2 9 18 12 31 5 23 -14z m-208 -5 c-3 -5 -12 -10 -18
-10 -7 0 -6 4 3 10 19 12 23 12 15 0z m-1071 -34 c-3 -9 -11 -16 -16 -16 -6 0
-5 -7 2 -15 11 -13 10 -14 -4 -9 -18 7 -21 20 -6 29 6 4 7 11 4 17 -4 7 -2 8
4 4 7 -4 12 -2 12 5 0 7 2 10 5 7 3 -3 3 -13 -1 -22z m1906 9 c-7 -8 -17 -15
-23 -15 -6 0 -2 7 9 15 25 19 30 19 14 0z m-955 -7 c5 4 5 1 1 -6 -6 -10 -11
-10 -22 -1 -8 6 -14 14 -14 16 0 3 6 0 13 -6 8 -6 18 -7 22 -3z m285 8 c0 -3
-4 -8 -10 -11 -5 -3 -10 -1 -10 4 0 6 5 11 10 11 6 0 10 -2 10 -4z m-344 -98
c0 -15 -4 -28 -8 -28 -5 0 -7 9 -3 19 3 11 0 23 -6 27 -7 4 -9 3 -5 -4 3 -6 2
-13 -2 -16 -8 -5 -9 12 -3 47 3 20 27 -20 27 -45z m59 13 c3 -5 2 -12 -3 -15
-5 -3 -9 1 -9 9 0 17 3 19 12 6z m889 -13 c-5 -8 -1 -9 12 -5 18 7 18 7 0 -8
-11 -8 -25 -15 -30 -15 -6 0 -4 5 4 10 13 9 13 10 0 10 -13 0 -13 1 0 10 20
13 23 12 14 -2z m-984 -38 c0 -5 -4 -10 -10 -10 -5 0 -10 5 -10 10 0 6 5 10
10 10 6 0 10 -4 10 -10z m-140 -95 c0 -2 -6 -5 -13 -8 -8 -3 -14 1 -14 8 0 7
6 11 14 8 7 -3 13 -6 13 -8z m15 -15 c-3 -5 -12 -10 -18 -10 -7 0 -6 4 3 10
19 12 23 12 15 0z m556 -463 c-10 -9 -11 -8 -5 6 3 10 9 15 12 12 3 -3 0 -11
-7 -18z m-210 -100 c-10 -9 -11 -8 -5 6 3 10 9 15 12 12 3 -3 0 -11 -7 -18z
m-121 -5 c0 -4 -9 -8 -20 -9 -11 -1 -20 2 -20 5 0 4 9 8 20 9 11 1 20 -2 20
-5z m-720 -1542 c0 -5 -2 -10 -4 -10 -3 0 -8 5 -11 10 -3 6 -1 10 4 10 6 0 11
-4 11 -10z m78 -18 c2 -7 -1 -12 -8 -12 -6 0 -9 4 -6 9 4 5 1 12 -4 14 -6 3
-5 4 2 3 6 -1 14 -8 16 -14z"/>
<path d="M2497 4583 c-4 -3 -7 -11 -7 -17 0 -6 5 -5 12 2 6 6 9 14 7 17 -3 3
-9 2 -12 -2z"/>
<path d="M2150 4216 c0 -2 7 -7 16 -10 8 -3 12 -2 9 4 -6 10 -25 14 -25 6z"/>
<path d="M2130 4039 c0 -5 5 -7 10 -4 6 3 10 8 10 11 0 2 -4 4 -10 4 -5 0 -10
-5 -10 -11z"/>
<path d="M2146 3338 c3 -4 11 -5 19 -1 21 7 19 12 -4 10 -11 0 -18 -5 -15 -9z"/>
<path d="M3419 3143 c-13 -16 -12 -17 4 -4 9 7 17 15 17 17 0 8 -8 3 -21 -13z"/>
<path d="M3510 3129 c0 -5 5 -7 10 -4 6 3 10 8 10 11 0 2 -4 4 -10 4 -5 0 -10
-5 -10 -11z"/>
<path d="M3155 2989 c-1 -28 2 -34 5 -14 1 6 6 15 11 21 6 8 5 13 -3 17 -9 3
-13 -5 -13 -24z"/>
<path d="M2970 2955 c8 -11 15 -21 16 -23 1 -2 5 5 8 15 4 9 4 14 0 10 -4 -4
-14 -1 -23 6 -14 11 -15 10 -1 -8z"/>
<path d="M3162 2191 c-11 -7 -11 -9 0 -14 9 -3 15 1 15 9 0 8 -1 14 -1 14 -1
0 -7 -4 -14 -9z"/>
<path d="M2955 780 c-3 -5 -1 -10 4 -10 6 0 11 5 11 10 0 6 -2 10 -4 10 -3 0
-8 -4 -11 -10z"/>
<path d="M2668 609 c-4 -10 1 -15 13 -16 12 -1 19 5 19 15 0 13 -2 14 -9 3 -7
-11 -9 -11 -13 0 -3 10 -6 10 -10 -2z"/>
</g>
</svg>
